<svg width="512" height="512" viewBox="0 0 512 512" fill="none" xmlns="http://www.w3.org/2000/svg">
  <rect width="512" height="512" rx="100" fill="#16a34a"/>
  <path d="M156 256C156 238.327 170.327 224 188 224H324C341.673 224 356 238.327 356 256V352C356 369.673 341.673 384 324 384H188C170.327 384 156 369.673 156 352V256Z" fill="white"/>
  <path d="M256 128C282.51 128 304 149.49 304 176C304 202.51 282.51 224 256 224C229.49 224 208 202.51 208 176C208 149.49 229.49 128 256 128Z" fill="white"/>
</svg> 